<?xml version="1.0" encoding="utf-8"?>
<svg version="1.1" id="Capa_1" viewBox="0 0 16 16" width="16" height="16" xmlns="http://www.w3.org/2000/svg">
  <defs id="defs21">
    <filter style="color-interpolation-filters:sRGB" id="filter1137" x="0" y="0" width="1" height="1">
      <feColorMatrix values="0 0 0 0 0 0 0 0 0 0 0 0 0 0 0 0 0 0 1 0" id="feColorMatrix1135"/>
    </filter>
  </defs>
  <g id="XMLID_470_" transform="scale(0.03125)" style="filter:url(#filter1137)">
    <path id="XMLID_459_" style="fill:#4e5152" d="M 435,50 V 450 H 415 V 50 C 415,33.458 401.542,20 385,20 h -64.766 l 93.324,301.523 -14.329,4.435 L 304.532,20 H 262.5 v 310 h -15 V 20 h -55 v 310 h -15 V 20 h -55 v 310 h -15 V 20 H 75 C 58.458,20 45,33.458 45,50 V 450 H 25 V 50 C 25,22.43 47.43,0 75,0 h 32.5 15 55 15 55 15 122.5 c 27.57,0 50,22.43 50,50 z"/>
    <path id="XMLID_847_" style="fill:#2c2f2f" d="m 170,325 c 0,30.376 -24.624,55 -55,55 -30.376,0 -55,-24.624 -55,-55 0,-30.376 24.624,-55 55,-55 30.376,0 55,24.624 55,55 z"/>
    <path id="XMLID_798_" style="fill:#4c4e50" d="M 163.985,300 C 154.88,317.804 136.37,330 115,330 93.63,330 75.12,317.804 66.015,300 75.12,282.196 93.63,270 115,270 c 21.37,0 39.88,12.196 48.985,30 z"/>
    <path id="XMLID_2021_" style="fill:#6c6e70" d="m 155,315 c 0,19.33 -15.67,35 -35,35 -19.33,0 -35,-15.67 -35,-35 0,-19.33 15.67,-35 35,-35 19.33,0 35,15.67 35,35 z"/>
    <path id="XMLID_2020_" style="fill:#a6a7aa" d="m 135,300 c 0,5.523 -4.477,10 -10,10 -5.523,0 -10,-4.477 -10,-10 0,-5.523 4.477,-10 10,-10 5.523,0 10,4.477 10,10 z"/>
    <path id="XMLID_1578_" style="fill:#363939" d="m 240,325 c 0,30.376 -24.624,55 -55,55 -30.376,0 -55,-24.624 -55,-55 0,-30.376 24.624,-55 55,-55 30.376,0 55,24.624 55,55 z"/>
    <path id="XMLID_1572_" style="fill:#5d5f61" d="m 233.985,300 c -9.105,17.804 -27.615,30 -48.985,30 -21.37,0 -39.88,-12.196 -48.985,-30 9.105,-17.804 27.615,-30 48.985,-30 21.37,0 39.88,12.196 48.985,30 z"/>
    <path id="XMLID_1566_" style="fill:#808284" d="m 225,315 c 0,19.33 -15.67,35 -35,35 -19.33,0 -35,-15.67 -35,-35 0,-19.33 15.67,-35 35,-35 19.33,0 35,15.67 35,35 z"/>
    <path id="XMLID_1403_" style="fill:#d5d5d7" d="m 205,300 c 0,5.523 -4.477,10 -10,10 -5.523,0 -10,-4.477 -10,-10 0,-5.523 4.477,-10 10,-10 5.523,0 10,4.477 10,10 z"/>
    <path id="XMLID_469_" style="fill:#4e5152" d="m 310,325 c 0,30.376 -24.624,55 -55,55 -30.376,0 -55,-24.624 -55,-55 0,-30.376 24.624,-55 55,-55 30.376,0 55,24.624 55,55 z m 78.654,-58.577 c -29.018,8.981 -45.26,39.785 -36.279,68.803 8.981,29.018 39.785,45.26 68.803,36.279 29.018,-8.981 45.26,-39.785 36.279,-68.803 -8.982,-29.017 -39.786,-45.26 -68.803,-36.279 z"/>
    <path id="XMLID_462_" style="fill:#707274" d="m 303.985,300 c -9.105,17.804 -27.615,30 -48.985,30 -21.37,0 -39.88,-12.196 -48.985,-30 9.105,-17.804 27.615,-30 48.985,-30 21.37,0 39.88,12.196 48.985,30 z m 140.418,-19.314 c -3.516,19.585 -17.556,36.581 -37.877,42.87 -20.456,6.331 -41.789,0.115 -55.75,-14.262 3.516,-19.585 17.556,-36.581 37.877,-42.87 20.457,-6.332 41.79,-0.116 55.75,14.262 z"/>
    <path id="XMLID_460_" style="fill:#989a9c" d="m 295,315 c 0,19.33 -15.67,35 -35,35 -19.33,0 -35,-15.67 -35,-35 0,-19.33 15.67,-35 35,-35 19.33,0 35,15.67 35,35 z m 101.387,-40.502 c -18.466,5.715 -28.802,25.318 -23.087,43.784 5.715,18.466 25.318,28.802 43.784,23.087 18.466,-5.715 28.802,-25.318 23.087,-43.784 -5.716,-18.466 -25.318,-28.803 -43.784,-23.087 z"/>
    <path id="XMLID_510_" style="fill:#efeff0" d="m 275,300 c 0,5.523 -4.477,10 -10,10 -5.523,0 -10,-4.477 -10,-10 0,-5.523 4.477,-10 10,-10 5.523,0 10,4.477 10,10 z m 5,10 c -2.761,0 -5,2.239 -5,5 0,2.761 2.239,5 5,5 2.761,0 5,-2.239 5,-5 0,-2.761 -2.239,-5 -5,-5 z m 124.12,-27.428 c -5.276,1.633 -8.229,7.234 -6.596,12.51 1.633,5.276 7.234,8.229 12.51,6.596 5.276,-1.633 8.229,-7.234 6.596,-12.51 -1.633,-5.275 -7.234,-8.229 -12.51,-6.596 z m 20.243,14.671 c -2.638,0.816 -4.115,3.617 -3.298,6.255 0.816,2.638 3.617,4.115 6.255,3.298 2.638,-0.816 4.115,-3.617 3.298,-6.255 -0.817,-2.638 -3.617,-4.114 -6.255,-3.298 z"/>
    <path id="XMLID_2004_" style="fill:#cbb57a" d="m 460,440 v 0 c 0,11.046 -8.954,20 -20,20 H 20 C 8.954,460 0,451.046 0,440 v 0 c 0,-11.046 8.954,-20 20,-20 h 420 c 11.046,0 20,8.954 20,20 z"/>
    <path id="XMLID_463_" style="fill:#9e8e60" d="m 0,440 h 460 c 0,11.046 -8.954,20 -20,20 H 20 C 8.954,460 0,451.046 0,440 Z"/>
  </g>
  <rect x="5" y="3.9" width="5" height="9.2" rx="0.5" ry="0.5" style="fill: rgb(255, 255, 255); stroke-width: 0.2; stroke: rgb(0, 0, 0);"/>
  <rect x="5" y="5.7" width="5" height="1.5" style="fill: black; stroke-width: 0.2; stroke: rgb(0, 0, 0);"/>
  <rect x="5" y="9.1" width="5" height="1.5" style="fill: black; stroke-width: 0.2; stroke: rgb(0, 0, 0);"/>
  <rect x="5" y="12.5" width="5" height="1.5" style="fill: black; stroke-width: 0.2; stroke: rgb(0, 0, 0);"/>
</svg>