<?xml version="1.0" encoding="iso-8859-1"?>
<!-- Uploaded to: SVG Repo, www.svgrepo.com, Generator: SVG Repo Mixer Tools -->
<svg xmlns="http://www.w3.org/2000/svg" xmlns:xlink="http://www.w3.org/1999/xlink" version="1.1" id="Capa_1"  viewBox="0 0 460 460" xml:space="preserve" width="512" height="512">
<g id="XMLID_470_">
	<path id="XMLID_459_" style="fill:#4E5152;" d="M435,50v400h-20V50c0-16.542-13.458-30-30-30h-64.766l93.324,301.523l-14.329,4.435   L304.532,20H262.5v310h-15V20h-55v310h-15V20h-55v310h-15V20H75c-16.542,0-30,13.458-30,30v400H25V50C25,22.43,47.43,0,75,0h32.5   h15h55h15h55h15H385C412.57,0,435,22.43,435,50z"/>
	<path id="XMLID_847_" style="fill:#2C2F2F;" d="M170,325c0,30.376-24.624,55-55,55s-55-24.624-55-55s24.624-55,55-55   S170,294.624,170,325z"/>
	<path id="XMLID_798_" style="fill:#4C4E50;" d="M163.985,300c-9.105,17.804-27.615,30-48.985,30s-39.88-12.196-48.985-30   C75.12,282.196,93.63,270,115,270S154.88,282.196,163.985,300z"/>
	<path id="XMLID_2021_" style="fill:#6C6E70;" d="M155,315c0,19.33-15.67,35-35,35s-35-15.67-35-35s15.67-35,35-35   S155,295.67,155,315z"/>
	<path id="XMLID_2020_" style="fill:#A6A7AA;" d="M135,300c0,5.523-4.477,10-10,10c-5.523,0-10-4.477-10-10s4.477-10,10-10   C130.523,290,135,294.477,135,300z"/>
	<path id="XMLID_1578_" style="fill:#363939;" d="M240,325c0,30.376-24.624,55-55,55s-55-24.624-55-55s24.624-55,55-55   S240,294.624,240,325z"/>
	<path id="XMLID_1572_" style="fill:#5D5F61;" d="M233.985,300c-9.105,17.804-27.615,30-48.985,30s-39.88-12.196-48.985-30   c9.105-17.804,27.615-30,48.985-30S224.88,282.196,233.985,300z"/>
	<path id="XMLID_1566_" style="fill:#808284;" d="M225,315c0,19.33-15.67,35-35,35s-35-15.67-35-35s15.67-35,35-35   S225,295.67,225,315z"/>
	<path id="XMLID_1403_" style="fill:#D5D5D7;" d="M205,300c0,5.523-4.477,10-10,10s-10-4.477-10-10s4.477-10,10-10   S205,294.477,205,300z"/>
	<path id="XMLID_469_" style="fill:#4E5152;" d="M310,325c0,30.376-24.624,55-55,55s-55-24.624-55-55s24.624-55,55-55   S310,294.624,310,325z M388.654,266.423c-29.018,8.981-45.26,39.785-36.279,68.803c8.981,29.018,39.785,45.26,68.803,36.279   c29.018-8.981,45.26-39.785,36.279-68.803C448.475,273.685,417.671,257.442,388.654,266.423z"/>
	<path id="XMLID_462_" style="fill:#707274;" d="M303.985,300c-9.105,17.804-27.615,30-48.985,30s-39.88-12.196-48.985-30   c9.105-17.804,27.615-30,48.985-30S294.88,282.196,303.985,300z M444.403,280.686c-3.516,19.585-17.556,36.581-37.877,42.87   c-20.456,6.331-41.789,0.115-55.75-14.262c3.516-19.585,17.556-36.581,37.877-42.87   C409.11,260.092,430.443,266.308,444.403,280.686z"/>
	<path id="XMLID_460_" style="fill:#989A9C;" d="M295,315c0,19.33-15.67,35-35,35s-35-15.67-35-35s15.67-35,35-35   S295,295.67,295,315z M396.387,274.498c-18.466,5.715-28.802,25.318-23.087,43.784c5.715,18.466,25.318,28.802,43.784,23.087   c18.466-5.715,28.802-25.318,23.087-43.784C434.455,279.119,414.853,268.782,396.387,274.498z"/>
	<path id="XMLID_510_" style="fill:#EFEFF0;" d="M275,300c0,5.523-4.477,10-10,10s-10-4.477-10-10s4.477-10,10-10   S275,294.477,275,300z M280,310c-2.761,0-5,2.239-5,5s2.239,5,5,5s5-2.239,5-5S282.761,310,280,310z M404.12,282.572   c-5.276,1.633-8.229,7.234-6.596,12.51c1.633,5.276,7.234,8.229,12.51,6.596c5.276-1.633,8.229-7.234,6.596-12.51   C414.997,283.893,409.396,280.939,404.12,282.572z M424.363,297.243c-2.638,0.816-4.115,3.617-3.298,6.255   c0.816,2.638,3.617,4.115,6.255,3.298c2.638-0.816,4.115-3.617,3.298-6.255C429.801,297.903,427.001,296.427,424.363,297.243z"/>
	<path id="XMLID_2004_" style="fill:#CBB57A;" d="M460,440L460,440c0,11.046-8.954,20-20,20H20c-11.046,0-20-8.954-20-20v0   c0-11.046,8.954-20,20-20h420C451.046,420,460,428.954,460,440z"/>
	<path id="XMLID_463_" style="fill:#9E8E60;" d="M0,440h460c0,11.046-8.954,20-20,20H20C8.954,460,0,451.046,0,440z"/>
</g>















</svg>